{
    "asset": {
        "generator": "COLLADA2GLTF",
        "version": "2.0"
    },
    "scene": 0,
    "scenes": [
        {
            "nodes": [
                0
            ]
        }
    ],
    "nodes": [
        {
            "children": [
                1
            ],
            "matrix": [
                0.009999999776482582,
                0.0,
                0.0,
                0.0,
                0.0,
                0.009999999776482582,
                0.0,
                0.0,
                0.0,
                0.0,
                0.009999999776482582,
                0.0,
                0.0,
                0.0,
                0.0,
                1.0
            ]
        },
        {
            "children": [
                9,
                8,
                7,
                6,
                5,
                4,
                3,
                2
            ]
        },
        {
            "mesh": 0
        },
        {
            "mesh": 1
        },
        {
            "mesh": 2
        },
        {
            "mesh": 3
        },
        {
            "mesh": 4
        },
        {
            "mesh": 5
        },
        {
            "mesh": 6
        },
        {
            "mesh": 7
        }
    ],
    "meshes": [
        {
            "primitives": [
                {
                    "attributes": {
                        "NORMAL": 1,
                        "POSITION": 2
                    },
                    "indices": 0,
                    "mode": 4,
                    "material": 0
                }
            ],
            "name": "Prop_MetalMesh"
        },
        {
            "primitives": [
                {
                    "attributes": {
                        "NORMAL": 4,
                        "POSITION": 5,
                        "TEXCOORD_0": 6
                    },
                    "indices": 3,
                    "mode": 4,
                    "material": 1
                }
            ],
            "name": "Prop_StoneMesh"
        },
        {
            "primitives": [
                {
                    "attributes": {
                        "NORMAL": 8,
                        "POSITION": 9,
                        "TEXCOORD_0": 10
                    },
                    "indices": 7,
                    "mode": 4,
                    "material": 2
                }
            ],
            "name": "Handle_HingeMesh"
        },
        {
            "primitives": [
                {
                    "attributes": {
                        "NORMAL": 12,
                        "POSITION": 13,
                        "TEXCOORD_0": 14
                    },
                    "indices": 11,
                    "mode": 4,
                    "material": 3
                }
            ],
            "name": "Back_MirrorMesh"
        },
        {
            "primitives": [
                {
                    "attributes": {
                        "NORMAL": 16,
                        "POSITION": 17
                    },
                    "indices": 15,
                    "mode": 4,
                    "material": 4
                }
            ],
            "name": "Glass2_EdgeMesh"
        },
        {
            "primitives": [
                {
                    "attributes": {
                        "NORMAL": 19,
                        "POSITION": 20
                    },
                    "indices": 18,
                    "mode": 4,
                    "material": 5
                }
            ],
            "name": "Glass2Mesh"
        },
        {
            "primitives": [
                {
                    "attributes": {
                        "NORMAL": 22,
                        "POSITION": 23,
                        "TEXCOORD_0": 24
                    },
                    "indices": 21,
                    "mode": 4,
                    "material": 6
                }
            ],
            "name": "Glass1Mesh"
        },
        {
            "primitives": [
                {
                    "attributes": {
                        "NORMAL": 26,
                        "POSITION": 27,
                        "TEXCOORD_0": 28
                    },
                    "indices": 25,
                    "mode": 4,
                    "material": 7
                }
            ],
            "name": "BackBarMesh"
        }
    ],
    "accessors": [
        {
            "bufferView": 0,
            "byteOffset": 0,
            "componentType": 5123,
            "count": 2880,
            "max": [
                1743
            ],
            "min": [
                0
            ],
            "type": "SCALAR"
        },
        {
            "bufferView": 1,
            "byteOffset": 0,
            "componentType": 5126,
            "count": 1744,
            "max": [
                1.0,
                1.0,
                1.0
            ],
            "min": [
                -1.0,
                -1.0,
                -1.0
            ],
            "type": "VEC3"
        },
        {
            "bufferView": 1,
            "byteOffset": 20928,
            "componentType": 5126,
            "count": 1744,
            "max": [
                66.55000305175781,
                153.22000122070312,
                7.699999809265137
            ],
            "min": [
                -66.55000305175781,
                117.30999755859376,
                -12.199999809265137
            ],
            "type": "VEC3"
        },
        {
            "bufferView": 0,
            "byteOffset": 5760,
            "componentType": 5123,
            "count": 1452,
            "max": [
                1055
            ],
            "min": [
                0
            ],
            "type": "SCALAR"
        },
        {
            "bufferView": 1,
            "byteOffset": 41856,
            "componentType": 5126,
            "count": 1056,
            "max": [
                1.0,
                1.0,
                1.0
            ],
            "min": [
                -1.0,
                -1.0,
                -1.0
            ],
            "type": "VEC3"
        },
        {
            "bufferView": 1,
            "byteOffset": 54528,
            "componentType": 5126,
            "count": 1056,
            "max": [
                66.41999816894531,
                186.94000244140625,
                16.059999465942383
            ],
            "min": [
                -66.41999816894531,
                58.040000915527344,
                8.75
            ],
            "type": "VEC3"
        },
        {
            "bufferView": 2,
            "byteOffset": 0,
            "componentType": 5126,
            "count": 1056,
            "max": [
                1.3666000366210938,
                0.9973999857902528
            ],
            "min": [
                0.010099999606609344,
                0.00270003080368042
            ],
            "type": "VEC2"
        },
        {
            "bufferView": 0,
            "byteOffset": 8664,
            "componentType": 5123,
            "count": 4911,
            "max": [
                1357
            ],
            "min": [
                0
            ],
            "type": "SCALAR"
        },
        {
            "bufferView": 1,
            "byteOffset": 67200,
            "componentType": 5126,
            "count": 1358,
            "max": [
                0.9999409914016724,
                1.0,
                1.0
            ],
            "min": [
                -0.9999409914016724,
                -0.9999979734420776,
                -0.9934899806976318
            ],
            "type": "VEC3"
        },
        {
            "bufferView": 1,
            "byteOffset": 83496,
            "componentType": 5126,
            "count": 1358,
            "max": [
                65.66000366210938,
                90.5500030517578,
                17.780000686645508
            ],
            "min": [
                -65.66000366210938,
                19.190000534057617,
                15.890000343322754
            ],
            "type": "VEC3"
        },
        {
            "bufferView": 2,
            "byteOffset": 8448,
            "componentType": 5126,
            "count": 1358,
            "max": [
                0.9907000064849854,
                0.9886999726295472
            ],
            "min": [
                0.04100000113248825,
                0.8285999894142151
            ],
            "type": "VEC2"
        },
        {
            "bufferView": 0,
            "byteOffset": 18486,
            "componentType": 5123,
            "count": 114,
            "max": [
                55
            ],
            "min": [
                0
            ],
            "type": "SCALAR"
        },
        {
            "bufferView": 1,
            "byteOffset": 99792,
            "componentType": 5126,
            "count": 56,
            "max": [
                0.034756001085042953,
                0.9665600061416626,
                0.9999039769172668
            ],
            "min": [
                -0.034756001085042953,
                -0.999396026134491,
                -0.9999039769172668
            ],
            "type": "VEC3"
        },
        {
            "bufferView": 1,
            "byteOffset": 100464,
            "componentType": 5126,
            "count": 56,
            "max": [
                66.41999816894531,
                188.72000122070312,
                -13.739999771118164
            ],
            "min": [
                -66.41999816894531,
                92.45999908447266,
                -16.06999969482422
            ],
            "type": "VEC3"
        },
        {
            "bufferView": 2,
            "byteOffset": 19312,
            "componentType": 5126,
            "count": 56,
            "max": [
                6.869500160217285,
                1.0
            ],
            "min": [
                0.0,
                -5.941800117492676
            ],
            "type": "VEC2"
        },
        {
            "bufferView": 0,
            "byteOffset": 18714,
            "componentType": 5123,
            "count": 480,
            "max": [
                95
            ],
            "min": [
                0
            ],
            "type": "SCALAR"
        },
        {
            "bufferView": 1,
            "byteOffset": 101136,
            "componentType": 5126,
            "count": 96,
            "max": [
                1.0,
                0.5705029964447021,
                1.0
            ],
            "min": [
                -1.0,
                -0.5705029964447021,
                -1.0
            ],
            "type": "VEC3"
        },
        {
            "bufferView": 1,
            "byteOffset": 102288,
            "componentType": 5126,
            "count": 96,
            "max": [
                66.29000091552734,
                146.36000061035156,
                9.239999771118164
            ],
            "min": [
                -66.29000091552734,
                117.69000244140624,
                -13.739999771118164
            ],
            "type": "VEC3"
        },
        {
            "bufferView": 0,
            "byteOffset": 19674,
            "componentType": 5123,
            "count": 48,
            "max": [
                31
            ],
            "min": [
                0
            ],
            "type": "SCALAR"
        },
        {
            "bufferView": 1,
            "byteOffset": 103440,
            "componentType": 5126,
            "count": 32,
            "max": [
                0.0,
                1.0,
                0.0
            ],
            "min": [
                0.0,
                -1.0,
                0.0
            ],
            "type": "VEC3"
        },
        {
            "bufferView": 1,
            "byteOffset": 103824,
            "componentType": 5126,
            "count": 32,
            "max": [
                66.16999816894531,
                146.36000061035156,
                9.109999656677246
            ],
            "min": [
                -66.16999816894531,
                117.69000244140624,
                -13.609999656677246
            ],
            "type": "VEC3"
        },
        {
            "bufferView": 0,
            "byteOffset": 19770,
            "componentType": 5123,
            "count": 72,
            "max": [
                47
            ],
            "min": [
                0
            ],
            "type": "SCALAR"
        },
        {
            "bufferView": 1,
            "byteOffset": 104208,
            "componentType": 5126,
            "count": 48,
            "max": [
                1.0,
                1.0,
                1.0
            ],
            "min": [
                -1.0,
                -1.0,
                -1.0
            ],
            "type": "VEC3"
        },
        {
            "bufferView": 1,
            "byteOffset": 104784,
            "componentType": 5126,
            "count": 48,
            "max": [
                60.810001373291016,
                56.52000045776367,
                15.199999809265137
            ],
            "min": [
                -60.810001373291016,
                18.03999900817871,
                14.34000015258789
            ],
            "type": "VEC3"
        },
        {
            "bufferView": 2,
            "byteOffset": 19760,
            "componentType": 5126,
            "count": 48,
            "max": [
                0.8787000179290771,
                0.8787000179290771
            ],
            "min": [
                0.12129999697208405,
                0.12129998207092284
            ],
            "type": "VEC2"
        },
        {
            "bufferView": 0,
            "byteOffset": 19914,
            "componentType": 5123,
            "count": 21711,
            "max": [
                7097
            ],
            "min": [
                0
            ],
            "type": "SCALAR"
        },
        {
            "bufferView": 1,
            "byteOffset": 105360,
            "componentType": 5126,
            "count": 7098,
            "max": [
                1.0,
                1.0,
                1.0
            ],
            "min": [
                -1.0,
                -1.0,
                -1.0
            ],
            "type": "VEC3"
        },
        {
            "bufferView": 1,
            "byteOffset": 190536,
            "componentType": 5126,
            "count": 7098,
            "max": [
                69.22000122070312,
                190.5,
                17.770000457763672
            ],
            "min": [
                -69.22000122070312,
                0.0,
                -17.780000686645508
            ],
            "type": "VEC3"
        },
        {
            "bufferView": 2,
            "byteOffset": 20144,
            "componentType": 5126,
            "count": 7098,
            "max": [
                7.757599830627441,
                9.48449993133545
            ],
            "min": [
                -7.194799900054932,
                -14.36139965057373
            ],
            "type": "VEC2"
        }
    ],
    "materials": [
        {
            "pbrMetallicRoughness": {
                "baseColorFactor": [
                    0.8748129254233544,
                    0.8748129254233544,
                    0.8748129254233544,
                    1.0
                ],
                "metallicFactor": 1.0,
                "roughnessFactor": 0.09999999999999998
            },
            "emissiveFactor": [
                0.0,
                0.0,
                0.0
            ],
            "name": "PropMetal"
        },
        {
            "pbrMetallicRoughness": {
                "baseColorFactor": [
                    1.0,
                    1.0,
                    1.0,
                    1.0
                ],
                "metallicFactor": 0.0,
                "roughnessFactor": 0.30000000000000004,
                "baseColorTexture": {
                    "index": 0
                }
            },
            "emissiveFactor": [
                0.0,
                0.0,
                0.0
            ],
            "name": "PropStone"
        },
        {
            "pbrMetallicRoughness": {
                "baseColorFactor": [
                    0.7310394488389058,
                    0.6767084897476692,
                    0.616557890204529,
                    1.0
                ],
                "metallicFactor": 1.0,
                "roughnessFactor": 1.0,
                "metallicRoughnessTexture": {
                    "index": 1
                }
            },
            "emissiveFactor": [
                0.0,
                0.0,
                0.0
            ],
            "name": "HandleHinge"
        },
        {
            "pbrMetallicRoughness": {
                "baseColorFactor": [
                    1.0,
                    1.0,
                    1.0,
                    1.0
                ],
                "metallicFactor": 0.94,
                "roughnessFactor": 0.04400000000000004,
                "baseColorTexture": {
                    "index": 2
                }
            },
            "emissiveFactor": [
                0.0,
                0.0,
                0.0
            ],
            "name": "BackMirror"
        },
        {
            "pbrMetallicRoughness": {
                "baseColorFactor": [
                    0.16742940664479233,
                    0.2758703562647155,
                    0.16742940664479233,
                    1.0
                ],
                "metallicFactor": 0.0,
                "roughnessFactor": 0.09999999999999998
            },
            "emissiveFactor": [
                0.0,
                0.0,
                0.0
            ],
            "name": "Glass2Edge_GlassTint"
        },
        {
            "pbrMetallicRoughness": {
                "baseColorFactor": [
                    1.0,
                    1.0,
                    1.0,
                    0.5180464096643974
                ],
                "metallicFactor": 1.0,
                "roughnessFactor": 0.09999999999999998
            },
            "emissiveFactor": [
                0.0,
                0.0,
                0.0
            ],
            "name": "Glass2_ClearGlass",
            "alphaMode": "BLEND"
        },
        {
            "pbrMetallicRoughness": {
                "baseColorFactor": [
                    1.0,
                    1.0,
                    1.0,
                    0.7099054076143315
                ],
                "metallicFactor": 0.94,
                "roughnessFactor": 0.25,
                "baseColorTexture": {
                    "index": 3
                }
            },
            "emissiveFactor": [
                0.0,
                0.0,
                0.0
            ],
            "name": "Glass_1",
            "alphaMode": "BLEND"
        },
        {
            "pbrMetallicRoughness": {
                "baseColorFactor": [
                    1.0,
                    0.9312212324662054,
                    0.7017825778628166,
                    1.0
                ],
                "metallicFactor": 0.0,
                "roughnessFactor": 0.55,
                "baseColorTexture": {
                    "index": 4
                }
            },
            "emissiveFactor": [
                0.0,
                0.0,
                0.0
            ],
            "name": "WoodBackBar",
            "normalTexture": {
                "index": 5
            }
        }
    ],
    "bufferViews": [
        {
            "buffer": 0,
            "byteOffset": 352640,
            "byteLength": 63336,
            "target": 34963
        },
        {
            "buffer": 0,
            "byteOffset": 0,
            "byteLength": 275712,
            "byteStride": 12,
            "target": 34962
        },
        {
            "buffer": 0,
            "byteOffset": 275712,
            "byteLength": 76928,
            "byteStride": 8,
            "target": 34962
        }
    ],
    "buffers": [
        {
            "byteLength": 415976,
            "uri": "data:application/octet-stream;base64,"
        }
    ],
    "images": [
        {
            "uri": "data:image/jpeg;base64,"
        },
        {
            "uri": "data:image/jpeg;base64,"
        },
        {
            "uri": "data:image/jpeg;base64,"
        },
        {
            "uri": "data:image/jpeg;base64,"
        },
        {
            "uri": "data:image/jpeg;base64,"
        },
        {
            "uri": "data:image/jpeg;base64,"
        }
    ],
    "textures": [
        {
            "sampler": 0,
            "source": 0
        },
        {
            "sampler": 0,
            "source": 1
        },
        {
            "sampler": 0,
            "source": 2
        },
        {
            "sampler": 0,
            "source": 3
        },
        {
            "sampler": 0,
            "source": 4
        },
        {
            "sampler": 0,
            "source": 5
        }
    ],
    "samplers": [
        {
            "magFilter": 9729,
            "minFilter": 9987,
            "wrapS": 10497,
            "wrapT": 10497
        }
    ]
}