{
    "asset": {
        "generator": "COLLADA2GLTF",
        "version": "2.0"
    },
    "scene": 0,
    "scenes": [
        {
            "nodes": [
                0
            ]
        }
    ],
    "nodes": [
        {
            "children": [
                1
            ],
            "matrix": [
                0.009999999776482582,
                0.0,
                0.0,
                0.0,
                0.0,
                0.009999999776482582,
                0.0,
                0.0,
                0.0,
                0.0,
                0.009999999776482582,
                0.0,
                0.0,
                0.0,
                0.0,
                1.0
            ]
        },
        {
            "children": [
                3,
                2
            ]
        },
        {
            "mesh": 0
        },
        {
            "mesh": 1
        }
    ],
    "meshes": [
        {
            "primitives": [
                {
                    "attributes": {
                        "NORMAL": 1,
                        "POSITION": 2,
                        "TEXCOORD_0": 3
                    },
                    "indices": 0,
                    "mode": 4,
                    "material": 0
                }
            ],
            "name": "_handleMesh"
        },
        {
            "primitives": [
                {
                    "attributes": {
                        "NORMAL": 5,
                        "POSITION": 6,
                        "TEXCOORD_0": 7
                    },
                    "indices": 4,
                    "mode": 4,
                    "material": 1
                }
            ],
            "name": "_tableMesh"
        }
    ],
    "accessors": [
        {
            "bufferView": 0,
            "byteOffset": 0,
            "componentType": 5123,
            "count": 9051,
            "max": [
                2923
            ],
            "min": [
                0
            ],
            "type": "SCALAR"
        },
        {
            "bufferView": 1,
            "byteOffset": 0,
            "componentType": 5126,
            "count": 2924,
            "max": [
                1.0,
                1.0,
                1.0
            ],
            "min": [
                -1.0,
                -1.0,
                -1.0
            ],
            "type": "VEC3"
        },
        {
            "bufferView": 1,
            "byteOffset": 35088,
            "componentType": 5126,
            "count": 2924,
            "max": [
                31.88999938964844,
                70.9000015258789,
                21.90999984741211
            ],
            "min": [
                -50.7400016784668,
                28.92000007629395,
                9.06999969482422
            ],
            "type": "VEC3"
        },
        {
            "bufferView": 2,
            "byteOffset": 0,
            "componentType": 5126,
            "count": 2924,
            "max": [
                0.9132000207901,
                0.7099000215530396
            ],
            "min": [
                0.0868000015616417,
                0.2906000018119812
            ],
            "type": "VEC2"
        },
        {
            "bufferView": 0,
            "byteOffset": 18102,
            "componentType": 5123,
            "count": 11190,
            "max": [
                3175
            ],
            "min": [
                0
            ],
            "type": "SCALAR"
        },
        {
            "bufferView": 1,
            "byteOffset": 70176,
            "componentType": 5126,
            "count": 3176,
            "max": [
                1.0,
                1.0,
                0.9999989867210388
            ],
            "min": [
                -1.0,
                -1.0,
                -1.0
            ],
            "type": "VEC3"
        },
        {
            "bufferView": 1,
            "byteOffset": 108288,
            "componentType": 5126,
            "count": 3176,
            "max": [
                55.0,
                76.0,
                25.010000228881836
            ],
            "min": [
                -55.0,
                0.0,
                -25.010000228881836
            ],
            "type": "VEC3"
        },
        {
            "bufferView": 2,
            "byteOffset": 23392,
            "componentType": 5126,
            "count": 3176,
            "max": [
                2.986299991607666,
                0.9980000257492064
            ],
            "min": [
                -0.026499999687075615,
                -1.988300085067749
            ],
            "type": "VEC2"
        }
    ],
    "materials": [
        {
            "pbrMetallicRoughness": {
                "baseColorFactor": [
                    0.5334687660243562,
                    0.40547792080718714,
                    0.2758703562647155,
                    1.0
                ],
                "metallicFactor": 1.0,
                "roughnessFactor": 1.0,
                "metallicRoughnessTexture": {
                    "index": 0
                }
            },
            "emissiveFactor": [
                0.0,
                0.0,
                0.0
            ],
            "name": "x_bronze"
        },
        {
            "pbrMetallicRoughness": {
                "baseColorFactor": [
                    1.0,
                    1.0,
                    1.0,
                    1.0
                ],
                "metallicFactor": 0.0,
                "roughnessFactor": 0.4,
                "baseColorTexture": {
                    "index": 1
                }
            },
            "emissiveFactor": [
                0.0,
                0.0,
                0.0
            ],
            "name": "x_wood"
        }
    ],
    "bufferViews": [
        {
            "buffer": 0,
            "byteOffset": 195200,
            "byteLength": 40482,
            "target": 34963
        },
        {
            "buffer": 0,
            "byteOffset": 0,
            "byteLength": 146400,
            "byteStride": 12,
            "target": 34962
        },
        {
            "buffer": 0,
            "byteOffset": 146400,
            "byteLength": 48800,
            "byteStride": 8,
            "target": 34962
        }
    ],
    "buffers": [
        {
            "byteLength": 235682,
            "uri": "data:application/octet-stream;base64,"
        }
    ],
    "images": [
        {
            "uri": "data:image/jpeg;base64,"
        },
        {
            "uri": "data:image/jpeg;base64,"
        }
    ],
    "textures": [
        {
            "sampler": 0,
            "source": 0
        },
        {
            "sampler": 0,
            "source": 1
        }
    ],
    "samplers": [
        {
            "magFilter": 9729,
            "minFilter": 9987,
            "wrapS": 10497,
            "wrapT": 10497
        }
    ]
}