{
    "asset": {
        "generator": "COLLADA2GLTF",
        "version": "2.0"
    },
    "scene": 0,
    "scenes": [
        {
            "nodes": [
                0
            ]
        }
    ],
    "nodes": [
        {
            "children": [
                1
            ],
            "matrix": [
                0.009999999776482582,
                0.0,
                0.0,
                0.0,
                0.0,
                0.009999999776482582,
                0.0,
                0.0,
                0.0,
                0.0,
                0.009999999776482582,
                0.0,
                0.0,
                0.0,
                0.0,
                1.0
            ]
        },
        {
            "children": [
                8,
                7,
                6,
                5,
                4,
                3,
                2
            ]
        },
        {
            "mesh": 0
        },
        {
            "mesh": 1
        },
        {
            "mesh": 2
        },
        {
            "mesh": 3
        },
        {
            "mesh": 4
        },
        {
            "mesh": 5
        },
        {
            "mesh": 6
        }
    ],
    "meshes": [
        {
            "primitives": [
                {
                    "attributes": {
                        "NORMAL": 1,
                        "POSITION": 2,
                        "TEXCOORD_0": 3
                    },
                    "indices": 0,
                    "mode": 4,
                    "material": 0
                }
            ],
            "name": "_Lamp__Fabric5Mesh"
        },
        {
            "primitives": [
                {
                    "attributes": {
                        "NORMAL": 5,
                        "POSITION": 6,
                        "TEXCOORD_0": 7
                    },
                    "indices": 4,
                    "mode": 4,
                    "material": 1
                }
            ],
            "name": "_Lamp__white1Mesh"
        },
        {
            "primitives": [
                {
                    "attributes": {
                        "NORMAL": 9,
                        "POSITION": 10,
                        "TEXCOORD_0": 11
                    },
                    "indices": 8,
                    "mode": 4,
                    "material": 2
                }
            ],
            "name": "_Lamp__Plastic9Mesh"
        },
        {
            "primitives": [
                {
                    "attributes": {
                        "NORMAL": 13,
                        "POSITION": 14,
                        "TEXCOORD_0": 15
                    },
                    "indices": 12,
                    "mode": 4,
                    "material": 3
                }
            ],
            "name": "_Lamp__Metal9Mesh"
        },
        {
            "primitives": [
                {
                    "attributes": {
                        "NORMAL": 17,
                        "POSITION": 18,
                        "TEXCOORD_0": 19
                    },
                    "indices": 16,
                    "mode": 4,
                    "material": 4
                }
            ],
            "name": "_Lamp__Glass7Mesh"
        },
        {
            "primitives": [
                {
                    "attributes": {
                        "NORMAL": 21,
                        "POSITION": 22,
                        "TEXCOORD_0": 23
                    },
                    "indices": 20,
                    "mode": 4,
                    "material": 5
                }
            ],
            "name": "_Lamp__Metalgold1Mesh"
        },
        {
            "primitives": [
                {
                    "attributes": {
                        "NORMAL": 25,
                        "POSITION": 26,
                        "TEXCOORD_0": 27
                    },
                    "indices": 24,
                    "mode": 4,
                    "material": 6
                }
            ],
            "name": "_Lamp__Wood1Mesh"
        }
    ],
    "accessors": [
        {
            "bufferView": 0,
            "byteOffset": 0,
            "componentType": 5123,
            "count": 4224,
            "max": [
                1104
            ],
            "min": [
                0
            ],
            "type": "SCALAR"
        },
        {
            "bufferView": 1,
            "byteOffset": 0,
            "componentType": 5126,
            "count": 1105,
            "max": [
                0.980081021785736,
                0.9950420260429382,
                0.980081021785736
            ],
            "min": [
                -0.980081021785736,
                -1.0,
                -0.980081021785736
            ],
            "type": "VEC3"
        },
        {
            "bufferView": 1,
            "byteOffset": 13260,
            "componentType": 5126,
            "count": 1105,
            "max": [
                15.0,
                50.0099983215332,
                14.989999771118164
            ],
            "min": [
                -15.0,
                34.04000091552735,
                -15.010000228881836
            ],
            "type": "VEC3"
        },
        {
            "bufferView": 2,
            "byteOffset": 0,
            "componentType": 5126,
            "count": 1105,
            "max": [
                3.522599935531616,
                2.2533998489379883
            ],
            "min": [
                -2.522599935531616,
                -0.7526999711990356
            ],
            "type": "VEC2"
        },
        {
            "bufferView": 0,
            "byteOffset": 8448,
            "componentType": 5123,
            "count": 3984,
            "max": [
                1205
            ],
            "min": [
                0
            ],
            "type": "SCALAR"
        },
        {
            "bufferView": 1,
            "byteOffset": 26520,
            "componentType": 5126,
            "count": 1206,
            "max": [
                0.9824159741401672,
                1.0,
                0.9824159741401672
            ],
            "min": [
                -0.9824159741401672,
                -0.9995099902153016,
                -0.9824159741401672
            ],
            "type": "VEC3"
        },
        {
            "bufferView": 1,
            "byteOffset": 40992,
            "componentType": 5126,
            "count": 1206,
            "max": [
                14.739999771118164,
                49.70000076293945,
                14.729999542236328
            ],
            "min": [
                -14.739999771118164,
                34.06999969482422,
                -14.75
            ],
            "type": "VEC3"
        },
        {
            "bufferView": 2,
            "byteOffset": 8840,
            "componentType": 5126,
            "count": 1206,
            "max": [
                5.0578999519348145,
                4.596099853515625
            ],
            "min": [
                -4.0507001876831055,
                -8.965800285339355
            ],
            "type": "VEC2"
        },
        {
            "bufferView": 0,
            "byteOffset": 16416,
            "componentType": 5123,
            "count": 696,
            "max": [
                196
            ],
            "min": [
                0
            ],
            "type": "SCALAR"
        },
        {
            "bufferView": 1,
            "byteOffset": 55464,
            "componentType": 5126,
            "count": 197,
            "max": [
                0.7348089814186096,
                0.9994459748268129,
                0.9201279878616332
            ],
            "min": [
                -0.997855007648468,
                -0.9989489912986756,
                -0.99549400806427
            ],
            "type": "VEC3"
        },
        {
            "bufferView": 1,
            "byteOffset": 57828,
            "componentType": 5126,
            "count": 197,
            "max": [
                -5.150000095367432,
                0.7699999809265137,
                -1.9900000095367432
            ],
            "min": [
                -14.369999885559082,
                0.2199999988079071,
                -8.40999984741211
            ],
            "type": "VEC3"
        },
        {
            "bufferView": 2,
            "byteOffset": 18488,
            "componentType": 5126,
            "count": 197,
            "max": [
                5.055699825286865,
                9.952899932861328
            ],
            "min": [
                -4.045700073242188,
                -2.408799886703491
            ],
            "type": "VEC2"
        },
        {
            "bufferView": 0,
            "byteOffset": 17808,
            "componentType": 5123,
            "count": 2964,
            "max": [
                1038
            ],
            "min": [
                0
            ],
            "type": "SCALAR"
        },
        {
            "bufferView": 1,
            "byteOffset": 60192,
            "componentType": 5126,
            "count": 1039,
            "max": [
                1.0,
                1.0,
                1.0
            ],
            "min": [
                -1.0,
                -1.0,
                -1.0
            ],
            "type": "VEC3"
        },
        {
            "bufferView": 1,
            "byteOffset": 72660,
            "componentType": 5126,
            "count": 1039,
            "max": [
                1.6799999475479128,
                44.11000061035156,
                1.75
            ],
            "min": [
                -5.389999866485596,
                0.4300000071525574,
                -2.379999876022339
            ],
            "type": "VEC3"
        },
        {
            "bufferView": 2,
            "byteOffset": 20064,
            "componentType": 5126,
            "count": 1039,
            "max": [
                1.8913999795913696,
                9.88070011138916
            ],
            "min": [
                -0.8949999809265137,
                -6.826300144195557
            ],
            "type": "VEC2"
        },
        {
            "bufferView": 0,
            "byteOffset": 23736,
            "componentType": 5123,
            "count": 1728,
            "max": [
                393
            ],
            "min": [
                0
            ],
            "type": "SCALAR"
        },
        {
            "bufferView": 1,
            "byteOffset": 85128,
            "componentType": 5126,
            "count": 394,
            "max": [
                0.9957029819488524,
                1.0,
                0.9845420122146606
            ],
            "min": [
                -0.9963039755821228,
                -1.0,
                -0.9848139882087708
            ],
            "type": "VEC3"
        },
        {
            "bufferView": 1,
            "byteOffset": 89856,
            "componentType": 5126,
            "count": 394,
            "max": [
                3.180000066757202,
                46.560001373291016,
                3.1700000762939458
            ],
            "min": [
                -3.180000066757202,
                38.970001220703125,
                -3.190000057220459
            ],
            "type": "VEC3"
        },
        {
            "bufferView": 2,
            "byteOffset": 28376,
            "componentType": 5126,
            "count": 394,
            "max": [
                1.8990000486373904,
                1.4221999645233157
            ],
            "min": [
                -0.8614000082015991,
                -7.346400260925293
            ],
            "type": "VEC2"
        },
        {
            "bufferView": 0,
            "byteOffset": 27192,
            "componentType": 5123,
            "count": 576,
            "max": [
                203
            ],
            "min": [
                0
            ],
            "type": "SCALAR"
        },
        {
            "bufferView": 1,
            "byteOffset": 94584,
            "componentType": 5126,
            "count": 204,
            "max": [
                1.0,
                1.0,
                1.0
            ],
            "min": [
                -1.0,
                0.0,
                -0.9999989867210388
            ],
            "type": "VEC3"
        },
        {
            "bufferView": 1,
            "byteOffset": 97032,
            "componentType": 5126,
            "count": 204,
            "max": [
                0.8799999952316284,
                34.61000061035156,
                0.8100000023841858
            ],
            "min": [
                -0.8500000238418579,
                29.860000610351562,
                -0.9200000166893004
            ],
            "type": "VEC3"
        },
        {
            "bufferView": 2,
            "byteOffset": 31528,
            "componentType": 5126,
            "count": 204,
            "max": [
                1.3707000017166138,
                0.7560999989509583
            ],
            "min": [
                -0.3129999935626984,
                -3.551899909973145
            ],
            "type": "VEC2"
        },
        {
            "bufferView": 0,
            "byteOffset": 28344,
            "componentType": 5123,
            "count": 15552,
            "max": [
                3588
            ],
            "min": [
                0
            ],
            "type": "SCALAR"
        },
        {
            "bufferView": 1,
            "byteOffset": 99480,
            "componentType": 5126,
            "count": 3589,
            "max": [
                1.0,
                1.0,
                1.0
            ],
            "min": [
                -1.0,
                -1.0,
                -1.0
            ],
            "type": "VEC3"
        },
        {
            "bufferView": 1,
            "byteOffset": 142548,
            "componentType": 5126,
            "count": 3589,
            "max": [
                5.679999828338623,
                29.8700008392334,
                5.679999828338623
            ],
            "min": [
                -5.679999828338623,
                0.0,
                -5.679999828338623
            ],
            "type": "VEC3"
        },
        {
            "bufferView": 2,
            "byteOffset": 33160,
            "componentType": 5126,
            "count": 3589,
            "max": [
                0.9962999820709229,
                0.9980000257492064
            ],
            "min": [
                0.0020000000949949026,
                0.001999974250793457
            ],
            "type": "VEC2"
        }
    ],
    "materials": [
        {
            "pbrMetallicRoughness": {
                "baseColorFactor": [
                    1.0,
                    1.0,
                    1.0,
                    1.0
                ],
                "metallicFactor": 0.0,
                "roughnessFactor": 0.7,
                "baseColorTexture": {
                    "index": 0
                }
            },
            "emissiveFactor": [
                0.0,
                0.0,
                0.0
            ],
            "name": "x_fabric"
        },
        {
            "pbrMetallicRoughness": {
                "baseColorFactor": [
                    0.8995081153845615,
                    0.8995081153845615,
                    0.8995081153845615,
                    1.0
                ],
                "metallicFactor": 0.0,
                "roughnessFactor": 0.8
            },
            "emissiveFactor": [
                0.0,
                0.0,
                0.0
            ],
            "name": "x_paper"
        },
        {
            "pbrMetallicRoughness": {
                "baseColorFactor": [
                    0.5180464096643974,
                    0.5180464096643974,
                    0.5180464096643974,
                    1.0
                ],
                "metallicFactor": 0.0,
                "roughnessFactor": 0.5
            },
            "emissiveFactor": [
                0.0,
                0.0,
                0.0
            ],
            "name": "x_grey"
        },
        {
            "pbrMetallicRoughness": {
                "baseColorFactor": [
                    0.16742940664479233,
                    0.16742940664479233,
                    0.16742940664479233,
                    1.0
                ],
                "metallicFactor": 0.0,
                "roughnessFactor": 0.5
            },
            "emissiveFactor": [
                0.0,
                0.0,
                0.0
            ],
            "name": "x_black"
        },
        {
            "pbrMetallicRoughness": {
                "baseColorFactor": [
                    1.0,
                    1.0,
                    1.0,
                    0.5180464096643974
                ],
                "metallicFactor": 1.0,
                "roughnessFactor": 0.09999999999999998
            },
            "emissiveFactor": [
                0.0,
                0.0,
                0.0
            ],
            "name": "x_bulb",
            "alphaMode": "BLEND"
        },
        {
            "pbrMetallicRoughness": {
                "baseColorFactor": [
                    1.0,
                    0.8852030938505663,
                    0.6069133665239949,
                    1.0
                ],
                "metallicFactor": 1.0,
                "roughnessFactor": 0.19999999999999996
            },
            "emissiveFactor": [
                0.0,
                0.0,
                0.0
            ],
            "name": "x_brass"
        },
        {
            "pbrMetallicRoughness": {
                "baseColorFactor": [
                    1.0,
                    1.0,
                    1.0,
                    1.0
                ],
                "metallicFactor": 0.0,
                "roughnessFactor": 0.6,
                "baseColorTexture": {
                    "index": 1
                }
            },
            "emissiveFactor": [
                0.0,
                0.0,
                0.0
            ],
            "name": "x_wood"
        }
    ],
    "bufferViews": [
        {
            "buffer": 0,
            "byteOffset": 247488,
            "byteLength": 59448,
            "target": 34963
        },
        {
            "buffer": 0,
            "byteOffset": 0,
            "byteLength": 185616,
            "byteStride": 12,
            "target": 34962
        },
        {
            "buffer": 0,
            "byteOffset": 185616,
            "byteLength": 61872,
            "byteStride": 8,
            "target": 34962
        }
    ],
    "buffers": [
        {
            "byteLength": 306936,
            "uri": "data:application/octet-stream;base64,"
        }
    ],
    "images": [
        {
            "uri": "data:image/jpeg;base64,"
        },
        {
            "uri": "data:image/jpeg;base64,"
        }
    ],
    "textures": [
        {
            "sampler": 0,
            "source": 0
        },
        {
            "sampler": 0,
            "source": 1
        }
    ],
    "samplers": [
        {
            "magFilter": 9729,
            "minFilter": 9987,
            "wrapS": 10497,
            "wrapT": 10497
        }
    ]
}