{
    "asset": {
        "generator": "COLLADA2GLTF",
        "version": "2.0"
    },
    "scene": 0,
    "scenes": [
        {
            "nodes": [
                0
            ]
        }
    ],
    "nodes": [
        {
            "children": [
                1
            ],
            "matrix": [
                0.009999999776482582,
                0.0,
                0.0,
                0.0,
                0.0,
                0.009999999776482582,
                0.0,
                0.0,
                0.0,
                0.0,
                0.009999999776482582,
                0.0,
                0.0,
                0.0,
                0.0,
                1.0
            ]
        },
        {
            "children": [
                3,
                2
            ]
        },
        {
            "mesh": 0
        },
        {
            "mesh": 1
        }
    ],
    "meshes": [
        {
            "primitives": [
                {
                    "attributes": {
                        "NORMAL": 1,
                        "POSITION": 2,
                        "TEXCOORD_0": 3
                    },
                    "indices": 0,
                    "mode": 4,
                    "material": 0
                }
            ],
            "name": "FrameMesh"
        },
        {
            "primitives": [
                {
                    "attributes": {
                        "NORMAL": 5,
                        "POSITION": 6,
                        "TEXCOORD_0": 7
                    },
                    "indices": 4,
                    "mode": 4,
                    "material": 1
                }
            ],
            "name": "MirrorMesh"
        }
    ],
    "accessors": [
        {
            "bufferView": 0,
            "byteOffset": 0,
            "componentType": 5123,
            "count": 528,
            "max": [
                383
            ],
            "min": [
                0
            ],
            "type": "SCALAR"
        },
        {
            "bufferView": 1,
            "byteOffset": 0,
            "componentType": 5126,
            "count": 384,
            "max": [
                1.0,
                1.0,
                1.0
            ],
            "min": [
                -1.0,
                -1.0,
                -1.0
            ],
            "type": "VEC3"
        },
        {
            "bufferView": 1,
            "byteOffset": 4608,
            "componentType": 5126,
            "count": 384,
            "max": [
                30.479999542236328,
                40.00500106811524,
                1.1399999856948853
            ],
            "min": [
                -30.479999542236328,
                -40.00500106811524,
                -1.1399999856948853
            ],
            "type": "VEC3"
        },
        {
            "bufferView": 2,
            "byteOffset": 0,
            "componentType": 5126,
            "count": 384,
            "max": [
                0.9000999927520752,
                0.8985000252723694
            ],
            "min": [
                0.10000000149011612,
                0.0999000072479248
            ],
            "type": "VEC2"
        },
        {
            "bufferView": 0,
            "byteOffset": 1056,
            "componentType": 5123,
            "count": 228,
            "max": [
                91
            ],
            "min": [
                0
            ],
            "type": "SCALAR"
        },
        {
            "bufferView": 1,
            "byteOffset": 9216,
            "componentType": 5126,
            "count": 92,
            "max": [
                1.0,
                1.0,
                0.9999960064888
            ],
            "min": [
                -1.0,
                -1.0,
                -1.0
            ],
            "type": "VEC3"
        },
        {
            "bufferView": 1,
            "byteOffset": 10320,
            "componentType": 5126,
            "count": 92,
            "max": [
                24.510000228881836,
                33.65500259399414,
                1.3087400197982788
            ],
            "min": [
                -24.510000228881836,
                -33.65500259399414,
                -1.1399999856948853
            ],
            "type": "VEC3"
        },
        {
            "bufferView": 2,
            "byteOffset": 3072,
            "componentType": 5126,
            "count": 92,
            "max": [
                0.8364999890327454,
                0.8366000056266785
            ],
            "min": [
                0.16500000655651093,
                0.16350001096725464
            ],
            "type": "VEC2"
        }
    ],
    "materials": [
        {
            "pbrMetallicRoughness": {
                "baseColorFactor": [
                    0.889318431842194,
                    0.8852030938505663,
                    0.8535755484039351,
                    1.0
                ],
                "metallicFactor": 0.0,
                "roughnessFactor": 0.6
            },
            "emissiveFactor": [
                0.0,
                0.0,
                0.0
            ],
            "name": "x_Frame"
        },
        {
            "pbrMetallicRoughness": {
                "baseColorFactor": [
                    0.8748129254233544,
                    0.8748129254233544,
                    0.8748129254233544,
                    1.0
                ],
                "metallicFactor": 1.0,
                "roughnessFactor": 0.09999999999999998
            },
            "emissiveFactor": [
                0.0,
                0.0,
                0.0
            ],
            "name": "x_Mirror"
        }
    ],
    "bufferViews": [
        {
            "buffer": 0,
            "byteOffset": 15232,
            "byteLength": 1512,
            "target": 34963
        },
        {
            "buffer": 0,
            "byteOffset": 0,
            "byteLength": 11424,
            "byteStride": 12,
            "target": 34962
        },
        {
            "buffer": 0,
            "byteOffset": 11424,
            "byteLength": 3808,
            "byteStride": 8,
            "target": 34962
        }
    ],
    "buffers": [
        {
            "byteLength": 16744,
            "uri": "data:application/octet-stream;base64,"
        }
    ],
    "images": [],
    "textures": [],
    "samplers": [
        {
            "magFilter": 9729,
            "minFilter": 9987,
            "wrapS": 10497,
            "wrapT": 10497
        }
    ]
}