{
    "asset": {
        "generator": "COLLADA2GLTF",
        "version": "2.0"
    },
    "scene": 0,
    "scenes": [
        {
            "nodes": [
                0
            ]
        }
    ],
    "nodes": [
        {
            "children": [
                1
            ],
            "matrix": [
                0.009999999776482582,
                0.0,
                0.0,
                0.0,
                0.0,
                0.009999999776482582,
                0.0,
                0.0,
                0.0,
                0.0,
                0.009999999776482582,
                0.0,
                0.0,
                0.0,
                0.0,
                1.0
            ]
        },
        {
            "children": [
                4,
                3,
                2
            ]
        },
        {
            "mesh": 0
        },
        {
            "mesh": 1
        },
        {
            "mesh": 2
        }
    ],
    "meshes": [
        {
            "primitives": [
                {
                    "attributes": {
                        "NORMAL": 1,
                        "POSITION": 2,
                        "TEXCOORD_0": 3
                    },
                    "indices": 0,
                    "mode": 4,
                    "material": 0
                }
            ],
            "name": "_Table__metal1Mesh"
        },
        {
            "primitives": [
                {
                    "attributes": {
                        "NORMAL": 5,
                        "POSITION": 6,
                        "TEXCOORD_0": 7
                    },
                    "indices": 4,
                    "mode": 4,
                    "material": 1
                }
            ],
            "name": "_Table__white1Mesh"
        },
        {
            "primitives": [
                {
                    "attributes": {
                        "NORMAL": 9,
                        "POSITION": 10,
                        "TEXCOORD_0": 11
                    },
                    "indices": 8,
                    "mode": 4,
                    "material": 2
                }
            ],
            "name": "_Table__wood1Mesh"
        }
    ],
    "accessors": [
        {
            "bufferView": 0,
            "byteOffset": 0,
            "componentType": 5123,
            "count": 2688,
            "max": [
                720
            ],
            "min": [
                0
            ],
            "type": "SCALAR"
        },
        {
            "bufferView": 1,
            "byteOffset": 0,
            "componentType": 5126,
            "count": 721,
            "max": [
                1.0,
                1.0,
                1.0
            ],
            "min": [
                -1.0,
                -1.0,
                -1.0
            ],
            "type": "VEC3"
        },
        {
            "bufferView": 1,
            "byteOffset": 8652,
            "componentType": 5126,
            "count": 721,
            "max": [
                2.119999885559082,
                70.41999816894531,
                15.869999885559082
            ],
            "min": [
                -1.5399999618530273,
                66.33999633789062,
                14.649999618530273
            ],
            "type": "VEC3"
        },
        {
            "bufferView": 2,
            "byteOffset": 0,
            "componentType": 5126,
            "count": 721,
            "max": [
                0.97979998588562,
                0.9334999918937684
            ],
            "min": [
                0.02019999921321869,
                0.014699995517730711
            ],
            "type": "VEC2"
        },
        {
            "bufferView": 0,
            "byteOffset": 5376,
            "componentType": 5123,
            "count": 10680,
            "max": [
                2671
            ],
            "min": [
                0
            ],
            "type": "SCALAR"
        },
        {
            "bufferView": 1,
            "byteOffset": 17304,
            "componentType": 5126,
            "count": 2672,
            "max": [
                1.0,
                0.933351993560791,
                1.0
            ],
            "min": [
                -1.0,
                -1.0,
                -1.0
            ],
            "type": "VEC3"
        },
        {
            "bufferView": 1,
            "byteOffset": 49368,
            "componentType": 5126,
            "count": 2672,
            "max": [
                45.38999938964844,
                74.66999816894531,
                17.010000228881836
            ],
            "min": [
                -45.38999938964844,
                0.07000000029802322,
                -17.010000228881836
            ],
            "type": "VEC3"
        },
        {
            "bufferView": 2,
            "byteOffset": 5768,
            "componentType": 5126,
            "count": 2672,
            "max": [
                -0.0494999997317791,
                0.8880000114440918
            ],
            "min": [
                -2.252599954605103,
                -1.1470999717712405
            ],
            "type": "VEC2"
        },
        {
            "bufferView": 0,
            "byteOffset": 26736,
            "componentType": 5123,
            "count": 1044,
            "max": [
                283
            ],
            "min": [
                0
            ],
            "type": "SCALAR"
        },
        {
            "bufferView": 1,
            "byteOffset": 81432,
            "componentType": 5126,
            "count": 284,
            "max": [
                1.0,
                1.0,
                1.0
            ],
            "min": [
                -1.0,
                -1.0,
                -1.0
            ],
            "type": "VEC3"
        },
        {
            "bufferView": 1,
            "byteOffset": 84840,
            "componentType": 5126,
            "count": 284,
            "max": [
                45.5,
                77.05999755859375,
                16.940000534057617
            ],
            "min": [
                -45.5,
                20.360000610351562,
                -16.940000534057617
            ],
            "type": "VEC3"
        },
        {
            "bufferView": 2,
            "byteOffset": 27144,
            "componentType": 5126,
            "count": 284,
            "max": [
                0.9848999977111816,
                0.981599986553192
            ],
            "min": [
                0.015399999916553497,
                0.021499991416931152
            ],
            "type": "VEC2"
        }
    ],
    "materials": [
        {
            "pbrMetallicRoughness": {
                "baseColorFactor": [
                    0.2673532013104906,
                    0.20730680025921003,
                    0.18189602715534578,
                    1.0
                ],
                "metallicFactor": 0.0,
                "roughnessFactor": 0.4
            },
            "emissiveFactor": [
                0.0,
                0.0,
                0.0
            ],
            "name": "x_bronze"
        },
        {
            "pbrMetallicRoughness": {
                "baseColorFactor": [
                    0.8578735466735221,
                    0.8470794188056225,
                    0.8090787954018936,
                    1.0
                ],
                "metallicFactor": 0.0,
                "roughnessFactor": 0.6
            },
            "emissiveFactor": [
                0.0,
                0.0,
                0.0
            ],
            "name": "x_white"
        },
        {
            "pbrMetallicRoughness": {
                "baseColorFactor": [
                    1.0,
                    1.0,
                    1.0,
                    1.0
                ],
                "metallicFactor": 0.0,
                "roughnessFactor": 0.8,
                "baseColorTexture": {
                    "index": 0
                }
            },
            "emissiveFactor": [
                0.0,
                0.0,
                0.0
            ],
            "name": "x_wood"
        }
    ],
    "bufferViews": [
        {
            "buffer": 0,
            "byteOffset": 117664,
            "byteLength": 28824,
            "target": 34963
        },
        {
            "buffer": 0,
            "byteOffset": 0,
            "byteLength": 88248,
            "byteStride": 12,
            "target": 34962
        },
        {
            "buffer": 0,
            "byteOffset": 88248,
            "byteLength": 29416,
            "byteStride": 8,
            "target": 34962
        }
    ],
    "buffers": [
        {
            "byteLength": 146488,
            "uri": "data:application/octet-stream;base64,"
        }
    ],
    "images": [
        {
            "uri": "data:image/jpeg;base64,"
        }
    ],
    "textures": [
        {
            "sampler": 0,
            "source": 0
        }
    ],
    "samplers": [
        {
            "magFilter": 9729,
            "minFilter": 9987,
            "wrapS": 10497,
            "wrapT": 10497
        }
    ]
}