{
    "asset": {
        "generator": "COLLADA2GLTF",
        "version": "2.0"
    },
    "scene": 0,
    "scenes": [
        {
            "nodes": [
                0
            ]
        }
    ],
    "nodes": [
        {
            "children": [
                1
            ],
            "matrix": [
                0.009999999776482582,
                0.0,
                0.0,
                0.0,
                0.0,
                0.009999999776482582,
                0.0,
                0.0,
                0.0,
                0.0,
                0.009999999776482582,
                0.0,
                0.0,
                0.0,
                0.0,
                1.0
            ]
        },
        {
            "children": [
                3,
                2
            ]
        },
        {
            "mesh": 0
        },
        {
            "mesh": 1
        }
    ],
    "meshes": [
        {
            "primitives": [
                {
                    "attributes": {
                        "NORMAL": 1,
                        "POSITION": 2,
                        "TEXCOORD_0": 3
                    },
                    "indices": 0,
                    "mode": 4,
                    "material": 0
                }
            ],
            "name": "FabricMesh"
        },
        {
            "primitives": [
                {
                    "attributes": {
                        "NORMAL": 5,
                        "POSITION": 6,
                        "TEXCOORD_0": 7
                    },
                    "indices": 4,
                    "mode": 4,
                    "material": 1
                }
            ],
            "name": "WhiteMesh"
        }
    ],
    "accessors": [
        {
            "bufferView": 0,
            "byteOffset": 0,
            "componentType": 5123,
            "count": 21303,
            "max": [
                5471
            ],
            "min": [
                0
            ],
            "type": "SCALAR"
        },
        {
            "bufferView": 1,
            "byteOffset": 0,
            "componentType": 5126,
            "count": 5472,
            "max": [
                0.999530017375946,
                0.9999949932098388,
                0.9998390078544616
            ],
            "min": [
                -0.9994360208511353,
                -0.9999939799308776,
                -0.9994199872016908
            ],
            "type": "VEC3"
        },
        {
            "bufferView": 1,
            "byteOffset": 65664,
            "componentType": 5126,
            "count": 5472,
            "max": [
                27.56999969482422,
                70.58000183105469,
                22.059999465942383
            ],
            "min": [
                -27.56999969482422,
                13.109999656677246,
                -27.3700008392334
            ],
            "type": "VEC3"
        },
        {
            "bufferView": 2,
            "byteOffset": 0,
            "componentType": 5126,
            "count": 5472,
            "max": [
                1.3348000049591064,
                1.2562999725341797
            ],
            "min": [
                -0.3348000049591065,
                -0.3674999475479126
            ],
            "type": "VEC2"
        },
        {
            "bufferView": 0,
            "byteOffset": 42606,
            "componentType": 5123,
            "count": 11232,
            "max": [
                2395
            ],
            "min": [
                0
            ],
            "type": "SCALAR"
        },
        {
            "bufferView": 1,
            "byteOffset": 131328,
            "componentType": 5126,
            "count": 2396,
            "max": [
                1.0,
                1.0,
                1.0
            ],
            "min": [
                -1.0,
                -1.0,
                -1.0
            ],
            "type": "VEC3"
        },
        {
            "bufferView": 1,
            "byteOffset": 160080,
            "componentType": 5126,
            "count": 2396,
            "max": [
                30.479999542236328,
                70.93000030517578,
                20.700000762939457
            ],
            "min": [
                -30.479999542236328,
                0.12999999523162845,
                -30.3700008392334
            ],
            "type": "VEC3"
        },
        {
            "bufferView": 2,
            "byteOffset": 43776,
            "componentType": 5126,
            "count": 2396,
            "max": [
                1.558899998664856,
                1.8536999225616455
            ],
            "min": [
                -0.558899998664856,
                -0.5405999422073364
            ],
            "type": "VEC2"
        }
    ],
    "materials": [
        {
            "pbrMetallicRoughness": {
                "baseColorFactor": [
                    1.0,
                    1.0,
                    1.0,
                    1.0
                ],
                "metallicFactor": 0.0,
                "roughnessFactor": 0.7,
                "baseColorTexture": {
                    "index": 0
                }
            },
            "emissiveFactor": [
                0.0,
                0.0,
                0.0
            ],
            "name": "f1"
        },
        {
            "pbrMetallicRoughness": {
                "baseColorFactor": [
                    0.8578735466735221,
                    0.8578735466735221,
                    0.8578735466735221,
                    1.0
                ],
                "metallicFactor": 0.0,
                "roughnessFactor": 0.19999999999999996
            },
            "emissiveFactor": [
                0.0,
                0.0,
                0.0
            ],
            "name": "w"
        }
    ],
    "bufferViews": [
        {
            "buffer": 0,
            "byteOffset": 251776,
            "byteLength": 65070,
            "target": 34963
        },
        {
            "buffer": 0,
            "byteOffset": 0,
            "byteLength": 188832,
            "byteStride": 12,
            "target": 34962
        },
        {
            "buffer": 0,
            "byteOffset": 188832,
            "byteLength": 62944,
            "byteStride": 8,
            "target": 34962
        }
    ],
    "buffers": [
        {
            "byteLength": 316846,
            "uri": "data:application/octet-stream;base64,"
        }
    ],
    "images": [
        {
            "uri": "data:image/jpeg;base64,"
        }
    ],
    "textures": [
        {
            "sampler": 0,
            "source": 0
        }
    ],
    "samplers": [
        {
            "magFilter": 9729,
            "minFilter": 9987,
            "wrapS": 10497,
            "wrapT": 10497
        }
    ]
}