{
    "asset": {
        "generator": "COLLADA2GLTF",
        "version": "2.0"
    },
    "scene": 0,
    "scenes": [
        {
            "nodes": [
                0
            ]
        }
    ],
    "nodes": [
        {
            "children": [
                1
            ],
            "matrix": [
                0.009999999776482582,
                0.0,
                0.0,
                0.0,
                0.0,
                0.009999999776482582,
                0.0,
                0.0,
                0.0,
                0.0,
                0.009999999776482582,
                0.0,
                0.0,
                0.0,
                0.0,
                1.0
            ]
        },
        {
            "children": [
                7,
                6,
                5,
                4,
                3,
                2
            ]
        },
        {
            "mesh": 0
        },
        {
            "mesh": 1
        },
        {
            "mesh": 2
        },
        {
            "mesh": 3
        },
        {
            "mesh": 4
        },
        {
            "mesh": 5
        }
    ],
    "meshes": [
        {
            "primitives": [
                {
                    "attributes": {
                        "NORMAL": 1,
                        "POSITION": 2,
                        "TEXCOORD_0": 3
                    },
                    "indices": 0,
                    "mode": 4,
                    "material": 0
                }
            ],
            "name": "Handle_HingeMesh"
        },
        {
            "primitives": [
                {
                    "attributes": {
                        "NORMAL": 5,
                        "POSITION": 6,
                        "TEXCOORD_0": 7
                    },
                    "indices": 4,
                    "mode": 4,
                    "material": 1
                }
            ],
            "name": "FaucetMesh"
        },
        {
            "primitives": [
                {
                    "attributes": {
                        "NORMAL": 9,
                        "POSITION": 10,
                        "TEXCOORD_0": 11
                    },
                    "indices": 8,
                    "mode": 4,
                    "material": 2
                }
            ],
            "name": "SinkMesh"
        },
        {
            "primitives": [
                {
                    "attributes": {
                        "NORMAL": 13,
                        "POSITION": 14,
                        "TEXCOORD_0": 15
                    },
                    "indices": 12,
                    "mode": 4,
                    "material": 3
                }
            ],
            "name": "MarbleMesh"
        },
        {
            "primitives": [
                {
                    "attributes": {
                        "NORMAL": 17,
                        "POSITION": 18,
                        "TEXCOORD_0": 19
                    },
                    "indices": 16,
                    "mode": 4,
                    "material": 4
                }
            ],
            "name": "Wood_2Mesh"
        },
        {
            "primitives": [
                {
                    "attributes": {
                        "NORMAL": 21,
                        "POSITION": 22,
                        "TEXCOORD_0": 23
                    },
                    "indices": 20,
                    "mode": 4,
                    "material": 5
                }
            ],
            "name": "Wood_1Mesh"
        }
    ],
    "accessors": [
        {
            "bufferView": 0,
            "byteOffset": 0,
            "componentType": 5123,
            "count": 4200,
            "max": [
                1073
            ],
            "min": [
                0
            ],
            "type": "SCALAR"
        },
        {
            "bufferView": 1,
            "byteOffset": 0,
            "componentType": 5126,
            "count": 1074,
            "max": [
                1.0,
                0.8907579779624939,
                1.0
            ],
            "min": [
                -1.0,
                -0.8894739747047424,
                -1.0
            ],
            "type": "VEC3"
        },
        {
            "bufferView": 1,
            "byteOffset": 12888,
            "componentType": 5126,
            "count": 1074,
            "max": [
                38.34000015258789,
                71.23999786376953,
                26.559999465942383
            ],
            "min": [
                -38.36000061035156,
                34.720001220703125,
                24.059999465942383
            ],
            "type": "VEC3"
        },
        {
            "bufferView": 2,
            "byteOffset": 0,
            "componentType": 5126,
            "count": 1074,
            "max": [
                0.998199999332428,
                0.36330002546310425
            ],
            "min": [
                0.7476999759674072,
                0.3015999794006348
            ],
            "type": "VEC2"
        },
        {
            "bufferView": 0,
            "byteOffset": 8400,
            "componentType": 5123,
            "count": 5922,
            "max": [
                1128
            ],
            "min": [
                0
            ],
            "type": "SCALAR"
        },
        {
            "bufferView": 1,
            "byteOffset": 25776,
            "componentType": 5126,
            "count": 1129,
            "max": [
                1.0,
                0.9999269843101501,
                1.0
            ],
            "min": [
                -1.0,
                -1.0,
                -1.0
            ],
            "type": "VEC3"
        },
        {
            "bufferView": 1,
            "byteOffset": 39324,
            "componentType": 5126,
            "count": 1129,
            "max": [
                15.59000015258789,
                94.4000015258789,
                -13.25
            ],
            "min": [
                -15.59000015258789,
                80.4000015258789,
                -26.1200008392334
            ],
            "type": "VEC3"
        },
        {
            "bufferView": 2,
            "byteOffset": 8592,
            "componentType": 5126,
            "count": 1129,
            "max": [
                1.0,
                1.0
            ],
            "min": [
                0.0,
                0.0
            ],
            "type": "VEC2"
        },
        {
            "bufferView": 0,
            "byteOffset": 20244,
            "componentType": 5123,
            "count": 5184,
            "max": [
                896
            ],
            "min": [
                0
            ],
            "type": "SCALAR"
        },
        {
            "bufferView": 1,
            "byteOffset": 52872,
            "componentType": 5126,
            "count": 897,
            "max": [
                0.9998120069503784,
                1.0,
                0.9986209869384766
            ],
            "min": [
                -0.9998120069503784,
                -0.9998440146446228,
                -0.9986259937286376
            ],
            "type": "VEC3"
        },
        {
            "bufferView": 1,
            "byteOffset": 63636,
            "componentType": 5126,
            "count": 897,
            "max": [
                22.809999465942383,
                77.4000015258789,
                10.399999618530273
            ],
            "min": [
                -22.799999237060547,
                63.84000015258789,
                -21.860000610351562
            ],
            "type": "VEC3"
        },
        {
            "bufferView": 2,
            "byteOffset": 17624,
            "componentType": 5126,
            "count": 897,
            "max": [
                0.6392999887466431,
                0.3223999738693238
            ],
            "min": [
                0.30320000648498535,
                0.046999990940094
            ],
            "type": "VEC2"
        },
        {
            "bufferView": 0,
            "byteOffset": 30612,
            "componentType": 5123,
            "count": 20364,
            "max": [
                3839
            ],
            "min": [
                0
            ],
            "type": "SCALAR"
        },
        {
            "bufferView": 1,
            "byteOffset": 74400,
            "componentType": 5126,
            "count": 3840,
            "max": [
                1.0,
                1.0,
                1.0
            ],
            "min": [
                -1.0,
                -1.0,
                -1.0
            ],
            "type": "VEC3"
        },
        {
            "bufferView": 1,
            "byteOffset": 120480,
            "componentType": 5126,
            "count": 3840,
            "max": [
                40.0099983215332,
                88.9000015258789,
                28.579999923706055
            ],
            "min": [
                -40.0,
                28.34000015258789,
                -27.5
            ],
            "type": "VEC3"
        },
        {
            "bufferView": 2,
            "byteOffset": 24800,
            "componentType": 5126,
            "count": 3840,
            "max": [
                0.9843000173568726,
                0.35740000009536743
            ],
            "min": [
                0.029400000348687172,
                0.008599996566772461
            ],
            "type": "VEC2"
        },
        {
            "bufferView": 0,
            "byteOffset": 71340,
            "componentType": 5123,
            "count": 15288,
            "max": [
                6927
            ],
            "min": [
                0
            ],
            "type": "SCALAR"
        },
        {
            "bufferView": 1,
            "byteOffset": 166560,
            "componentType": 5126,
            "count": 6928,
            "max": [
                1.0,
                1.0,
                1.0
            ],
            "min": [
                -1.0,
                -1.0,
                -1.0
            ],
            "type": "VEC3"
        },
        {
            "bufferView": 1,
            "byteOffset": 249696,
            "componentType": 5126,
            "count": 6928,
            "max": [
                37.81999969482422,
                75.7699966430664,
                26.079999923706055
            ],
            "min": [
                -37.81999969482422,
                27.479999542236328,
                24.219999313354492
            ],
            "type": "VEC3"
        },
        {
            "bufferView": 2,
            "byteOffset": 55520,
            "componentType": 5126,
            "count": 6928,
            "max": [
                0.9957000017166138,
                0.9969000220298768
            ],
            "min": [
                0.007400000002235174,
                0.3704000115394593
            ],
            "type": "VEC2"
        },
        {
            "bufferView": 0,
            "byteOffset": 101916,
            "componentType": 5123,
            "count": 2232,
            "max": [
                1151
            ],
            "min": [
                0
            ],
            "type": "SCALAR"
        },
        {
            "bufferView": 1,
            "byteOffset": 332832,
            "componentType": 5126,
            "count": 1152,
            "max": [
                1.0,
                1.0,
                1.0
            ],
            "min": [
                -1.0,
                -1.0,
                -1.0
            ],
            "type": "VEC3"
        },
        {
            "bufferView": 1,
            "byteOffset": 346656,
            "componentType": 5126,
            "count": 1152,
            "max": [
                39.59000015258789,
                79.26000213623047,
                28.42000007629395
            ],
            "min": [
                -39.59000015258789,
                0.0,
                -28.579999923706055
            ],
            "type": "VEC3"
        },
        {
            "bufferView": 2,
            "byteOffset": 110944,
            "componentType": 5126,
            "count": 1152,
            "max": [
                1.0,
                1.0
            ],
            "min": [
                0.0,
                0.0
            ],
            "type": "VEC2"
        }
    ],
    "materials": [
        {
            "pbrMetallicRoughness": {
                "baseColorFactor": [
                    1.0,
                    1.0,
                    1.0,
                    1.0
                ],
                "metallicFactor": 0.8,
                "roughnessFactor": 0.5,
                "baseColorTexture": {
                    "index": 0
                }
            },
            "emissiveFactor": [
                0.0,
                0.0,
                0.0
            ],
            "name": "HandleHinge"
        },
        {
            "pbrMetallicRoughness": {
                "baseColorFactor": [
                    0.8748129254233544,
                    0.8748129254233544,
                    0.8748129254233544,
                    1.0
                ],
                "metallicFactor": 1.0,
                "roughnessFactor": 0.09999999999999998
            },
            "emissiveFactor": [
                0.0,
                0.0,
                0.0
            ],
            "name": "Faucet_Chrome_1"
        },
        {
            "pbrMetallicRoughness": {
                "baseColorFactor": [
                    0.8578735466735221,
                    0.8578735466735221,
                    0.8578735466735221,
                    1.0
                ],
                "metallicFactor": 0.0,
                "roughnessFactor": 0.19999999999999996
            },
            "emissiveFactor": [
                0.0,
                0.0,
                0.0
            ],
            "name": "Sink_White_Stone"
        },
        {
            "pbrMetallicRoughness": {
                "baseColorFactor": [
                    1.0,
                    1.0,
                    1.0,
                    1.0
                ],
                "metallicFactor": 0.88,
                "roughnessFactor": 0.09199999999999997,
                "baseColorTexture": {
                    "index": 1
                }
            },
            "emissiveFactor": [
                0.0,
                0.0,
                0.0
            ],
            "name": "Marble2"
        },
        {
            "pbrMetallicRoughness": {
                "baseColorFactor": [
                    1.0,
                    1.0,
                    1.0,
                    1.0
                ],
                "metallicFactor": 0.0,
                "roughnessFactor": 0.8,
                "baseColorTexture": {
                    "index": 2
                }
            },
            "emissiveFactor": [
                0.0,
                0.0,
                0.0
            ],
            "name": "Wood2"
        },
        {
            "pbrMetallicRoughness": {
                "baseColorFactor": [
                    1.0,
                    1.0,
                    1.0,
                    1.0
                ],
                "metallicFactor": 0.0,
                "roughnessFactor": 0.8,
                "baseColorTexture": {
                    "index": 3
                }
            },
            "emissiveFactor": [
                0.0,
                0.0,
                0.0
            ],
            "name": "Wood1"
        }
    ],
    "bufferViews": [
        {
            "buffer": 0,
            "byteOffset": 480640,
            "byteLength": 106380,
            "target": 34963
        },
        {
            "buffer": 0,
            "byteOffset": 0,
            "byteLength": 360480,
            "byteStride": 12,
            "target": 34962
        },
        {
            "buffer": 0,
            "byteOffset": 360480,
            "byteLength": 120160,
            "byteStride": 8,
            "target": 34962
        }
    ],
    "buffers": [
        {
            "byteLength": 587020,
            "uri": "data:application/octet-stream;base64,"
        }
    ],
    "images": [
        {
            "uri": "data:image/jpeg;base64,"
        },
        {
            "uri": "data:image/jpeg;base64,"
        },
        {
            "uri": "data:image/jpeg;base64,"
        },
        {
            "uri": "data:image/jpeg;base64,"
        }
    ],
    "textures": [
        {
            "sampler": 0,
            "source": 0
        },
        {
            "sampler": 0,
            "source": 1
        },
        {
            "sampler": 0,
            "source": 2
        },
        {
            "sampler": 0,
            "source": 3
        }
    ],
    "samplers": [
        {
            "magFilter": 9729,
            "minFilter": 9987,
            "wrapS": 10497,
            "wrapT": 10497
        }
    ]
}