{
    "asset": {
        "generator": "COLLADA2GLTF",
        "version": "2.0"
    },
    "scene": 0,
    "scenes": [
        {
            "nodes": [
                0
            ]
        }
    ],
    "nodes": [
        {
            "children": [
                1
            ],
            "matrix": [
                0.009999999776482582,
                0.0,
                0.0,
                0.0,
                0.0,
                0.009999999776482582,
                0.0,
                0.0,
                0.0,
                0.0,
                0.009999999776482582,
                0.0,
                0.0,
                0.0,
                0.0,
                1.0
            ]
        },
        {
            "children": [
                6,
                5,
                4,
                3,
                2
            ],
            "matrix": [
                1.0,
                0.0,
                0.0,
                0.0,
                0.0,
                1.0,
                0.0,
                0.0,
                0.0,
                0.0,
                1.0,
                0.0,
                0.0,
                -62.617958068847656,
                0.0,
                1.0
            ]
        },
        {
            "mesh": 0
        },
        {
            "mesh": 1
        },
        {
            "mesh": 2
        },
        {
            "mesh": 3,
            "matrix": [
                1.0,
                0.0,
                0.0,
                0.0,
                0.0,
                1.0,
                0.0,
                0.0,
                0.0,
                0.0,
                1.0,
                0.0,
                0.0,
                27.80101013183594,
                0.0,
                1.0
            ]
        },
        {
            "mesh": 4,
            "matrix": [
                0.6646469831466675,
                0.0,
                0.0,
                0.0,
                0.0,
                0.6646469831466675,
                0.0,
                0.0,
                0.0,
                0.0,
                0.6646469831466675,
                0.0,
                0.0,
                1.6465799808502197,
                0.0,
                1.0
            ]
        }
    ],
    "meshes": [
        {
            "primitives": [
                {
                    "attributes": {
                        "NORMAL": 1,
                        "POSITION": 2,
                        "TEXCOORD_0": 3
                    },
                    "indices": 0,
                    "mode": 4,
                    "material": 0
                }
            ],
            "name": "image_planeMesh"
        },
        {
            "primitives": [
                {
                    "attributes": {
                        "NORMAL": 5,
                        "POSITION": 6,
                        "TEXCOORD_0": 7
                    },
                    "indices": 4,
                    "mode": 4,
                    "material": 1
                }
            ],
            "name": "diamondsMesh"
        },
        {
            "primitives": [
                {
                    "attributes": {
                        "NORMAL": 9,
                        "POSITION": 10,
                        "TEXCOORD_0": 11
                    },
                    "indices": 8,
                    "mode": 4,
                    "material": 2
                }
            ],
            "name": "light_bulbsMesh"
        },
        {
            "primitives": [
                {
                    "attributes": {
                        "NORMAL": 13,
                        "POSITION": 14,
                        "TEXCOORD_0": 15
                    },
                    "indices": 12,
                    "mode": 4,
                    "material": 3
                }
            ],
            "name": "center_glassMesh"
        },
        {
            "primitives": [
                {
                    "attributes": {
                        "NORMAL": 17,
                        "POSITION": 18,
                        "TEXCOORD_0": 19
                    },
                    "indices": 16,
                    "mode": 4,
                    "material": 4
                }
            ],
            "name": "glass_ball_bottomMesh"
        }
    ],
    "accessors": [
        {
            "bufferView": 0,
            "byteOffset": 0,
            "componentType": 5123,
            "count": 84624,
            "max": [
                21895
            ],
            "min": [
                0
            ],
            "type": "SCALAR"
        },
        {
            "bufferView": 1,
            "byteOffset": 0,
            "componentType": 5126,
            "count": 21896,
            "max": [
                1.0,
                1.0,
                1.0
            ],
            "min": [
                -1.0,
                -1.0,
                -1.0
            ],
            "type": "VEC3"
        },
        {
            "bufferView": 1,
            "byteOffset": 262752,
            "componentType": 5126,
            "count": 21896,
            "max": [
                22.51081657409668,
                62.71123504638672,
                22.51081657409668
            ],
            "min": [
                -22.51081657409668,
                2.1691579818725586,
                -22.51081657409668
            ],
            "type": "VEC3"
        },
        {
            "bufferView": 2,
            "byteOffset": 0,
            "componentType": 5126,
            "count": 21896,
            "max": [
                1.0,
                1.0
            ],
            "min": [
                0.0,
                0.0
            ],
            "type": "VEC2"
        },
        {
            "bufferView": 0,
            "byteOffset": 169248,
            "componentType": 5123,
            "count": 5040,
            "max": [
                5039
            ],
            "min": [
                0
            ],
            "type": "SCALAR"
        },
        {
            "bufferView": 1,
            "byteOffset": 525504,
            "componentType": 5126,
            "count": 5040,
            "max": [
                0.9994990229606628,
                0.99897301197052,
                0.9997119903564452
            ],
            "min": [
                -0.9994990229606628,
                -0.9998499751091005,
                -0.998995006084442
            ],
            "type": "VEC3"
        },
        {
            "bufferView": 1,
            "byteOffset": 585984,
            "componentType": 5126,
            "count": 5040,
            "max": [
                26.26104736328125,
                53.14772033691406,
                26.26104736328125
            ],
            "min": [
                -26.26104736328125,
                9.369051933288576,
                -26.26104736328125
            ],
            "type": "VEC3"
        },
        {
            "bufferView": 2,
            "byteOffset": 175168,
            "componentType": 5126,
            "count": 5040,
            "max": [
                1.0,
                0.75
            ],
            "min": [
                0.0,
                0.25
            ],
            "type": "VEC2"
        },
        {
            "bufferView": 0,
            "byteOffset": 179328,
            "componentType": 5123,
            "count": 2544,
            "max": [
                831
            ],
            "min": [
                0
            ],
            "type": "SCALAR"
        },
        {
            "bufferView": 1,
            "byteOffset": 646464,
            "componentType": 5126,
            "count": 832,
            "max": [
                1.0,
                0.960394024848938,
                1.0
            ],
            "min": [
                -1.0,
                -0.8923900127410889,
                -1.0
            ],
            "type": "VEC3"
        },
        {
            "bufferView": 1,
            "byteOffset": 656448,
            "componentType": 5126,
            "count": 832,
            "max": [
                10.36837673187256,
                40.2473030090332,
                10.36837673187256
            ],
            "min": [
                -10.36837673187256,
                15.656123161315918,
                -10.36837673187256
            ],
            "type": "VEC3"
        },
        {
            "bufferView": 2,
            "byteOffset": 215488,
            "componentType": 5126,
            "count": 832,
            "max": [
                1.0,
                1.0
            ],
            "min": [
                0.0,
                0.0
            ],
            "type": "VEC2"
        },
        {
            "bufferView": 0,
            "byteOffset": 184416,
            "componentType": 5123,
            "count": 72,
            "max": [
                26
            ],
            "min": [
                0
            ],
            "type": "SCALAR"
        },
        {
            "bufferView": 1,
            "byteOffset": 666432,
            "componentType": 5126,
            "count": 27,
            "max": [
                1.0,
                -0.0,
                1.0
            ],
            "min": [
                -1.0,
                -1.0,
                -1.0
            ],
            "type": "VEC3"
        },
        {
            "bufferView": 1,
            "byteOffset": 666756,
            "componentType": 5126,
            "count": 27,
            "max": [
                0.7620000243186951,
                18.909975051879883,
                0.7620000243186951
            ],
            "min": [
                -0.7620000243186951,
                -18.89168739318848,
                -0.7620000243186951
            ],
            "type": "VEC3"
        },
        {
            "bufferView": 2,
            "byteOffset": 222144,
            "componentType": 5126,
            "count": 27,
            "max": [
                0.65625,
                1.0
            ],
            "min": [
                0.34375,
                0.3115599751472473
            ],
            "type": "VEC2"
        },
        {
            "bufferView": 0,
            "byteOffset": 184560,
            "componentType": 5123,
            "count": 348,
            "max": [
                179
            ],
            "min": [
                0
            ],
            "type": "SCALAR"
        },
        {
            "bufferView": 1,
            "byteOffset": 667080,
            "componentType": 5126,
            "count": 180,
            "max": [
                0.9686229825019836,
                0.9392340183258056,
                0.9845250248908995
            ],
            "min": [
                -0.9686229825019836,
                -0.9392340183258056,
                -0.9845250248908995
            ],
            "type": "VEC3"
        },
        {
            "bufferView": 1,
            "byteOffset": 669240,
            "componentType": 5126,
            "count": 180,
            "max": [
                2.5055201053619385,
                2.539999961853028,
                2.472352981567383
            ],
            "min": [
                -2.5055201053619385,
                -2.539999961853028,
                -2.472352981567383
            ],
            "type": "VEC3"
        },
        {
            "bufferView": 2,
            "byteOffset": 222360,
            "componentType": 5126,
            "count": 180,
            "max": [
                1.0,
                0.800000011920929
            ],
            "min": [
                0.0,
                0.2103310227394104
            ],
            "type": "VEC2"
        }
    ],
    "materials": [
        {
            "pbrMetallicRoughness": {
                "baseColorFactor": [
                    0.8748129254233544,
                    0.8748129254233544,
                    0.8748129254233544,
                    1.0
                ],
                "metallicFactor": 1.0,
                "roughnessFactor": 0.09999999999999998
            },
            "emissiveFactor": [
                0.0,
                0.0,
                0.0
            ],
            "name": "image_plane_MatGRP"
        },
        {
            "pbrMetallicRoughness": {
                "baseColorFactor": [
                    1.0,
                    0.9874275209956076,
                    0.9672732247691044,
                    0.7539711377110243
                ],
                "metallicFactor": 0.43,
                "roughnessFactor": 0.0
            },
            "emissiveFactor": [
                0.0,
                0.0,
                0.0
            ],
            "name": "Diamond_Chandelier_38116553",
            "alphaMode": "BLEND"
        },
        {
            "pbrMetallicRoughness": {
                "baseColorFactor": [
                    1.0,
                    1.0,
                    1.0,
                    0.5180464096643974
                ],
                "metallicFactor": 1.0,
                "roughnessFactor": 0.09999999999999998
            },
            "emissiveFactor": [
                0.0,
                0.0,
                0.0
            ],
            "name": "light_bulbs_MatGRP",
            "alphaMode": "BLEND"
        },
        {
            "pbrMetallicRoughness": {
                "baseColorFactor": [
                    1.0,
                    1.0,
                    1.0,
                    0.5180464096643974
                ],
                "metallicFactor": 1.0,
                "roughnessFactor": 0.09999999999999998
            },
            "emissiveFactor": [
                0.0,
                0.0,
                0.0
            ],
            "name": "acrylic1",
            "alphaMode": "BLEND"
        },
        {
            "pbrMetallicRoughness": {
                "baseColorFactor": [
                    1.0,
                    1.0,
                    1.0,
                    0.5180464096643974
                ],
                "metallicFactor": 1.0,
                "roughnessFactor": 0.09999999999999998
            },
            "emissiveFactor": [
                0.0,
                0.0,
                0.0
            ],
            "name": "acrylic1",
            "alphaMode": "BLEND"
        }
    ],
    "bufferViews": [
        {
            "buffer": 0,
            "byteOffset": 895200,
            "byteLength": 185256,
            "target": 34963
        },
        {
            "buffer": 0,
            "byteOffset": 0,
            "byteLength": 671400,
            "byteStride": 12,
            "target": 34962
        },
        {
            "buffer": 0,
            "byteOffset": 671400,
            "byteLength": 223800,
            "byteStride": 8,
            "target": 34962
        }
    ],
    "buffers": [
        {
            "byteLength": 1080456,
            "uri": "data:application/octet-stream;base64,"
        }
    ],
    "images": [],
    "textures": [],
    "samplers": [
        {
            "magFilter": 9729,
            "minFilter": 9987,
            "wrapS": 10497,
            "wrapT": 10497
        }
    ]
}