{
    "asset": {
        "generator": "COLLADA2GLTF",
        "version": "2.0"
    },
    "scene": 0,
    "scenes": [
        {
            "nodes": [
                0
            ]
        }
    ],
    "nodes": [
        {
            "children": [
                1
            ],
            "matrix": [
                0.009999999776482582,
                0.0,
                0.0,
                0.0,
                0.0,
                0.009999999776482582,
                0.0,
                0.0,
                0.0,
                0.0,
                0.009999999776482582,
                0.0,
                0.0,
                0.0,
                0.0,
                1.0
            ]
        },
        {
            "children": [
                6,
                5,
                4,
                3,
                2
            ]
        },
        {
            "mesh": 0
        },
        {
            "mesh": 1
        },
        {
            "mesh": 2
        },
        {
            "mesh": 3
        },
        {
            "mesh": 4
        }
    ],
    "meshes": [
        {
            "primitives": [
                {
                    "attributes": {
                        "NORMAL": 1,
                        "POSITION": 2,
                        "TEXCOORD_0": 3
                    },
                    "indices": 0,
                    "mode": 4,
                    "material": 0
                }
            ],
            "name": "vanity_xc_chromeMesh"
        },
        {
            "primitives": [
                {
                    "attributes": {
                        "NORMAL": 5,
                        "POSITION": 6,
                        "TEXCOORD_0": 7
                    },
                    "indices": 4,
                    "mode": 4,
                    "material": 1
                }
            ],
            "name": "vanity_xc_lacqMesh"
        },
        {
            "primitives": [
                {
                    "attributes": {
                        "NORMAL": 9,
                        "POSITION": 10,
                        "TEXCOORD_0": 11
                    },
                    "indices": 8,
                    "mode": 4,
                    "material": 2
                }
            ],
            "name": "vanity_xc_marbleMesh"
        },
        {
            "primitives": [
                {
                    "attributes": {
                        "NORMAL": 13,
                        "POSITION": 14,
                        "TEXCOORD_0": 15
                    },
                    "indices": 12,
                    "mode": 4,
                    "material": 3
                }
            ],
            "name": "vanity_xc_woodMesh"
        },
        {
            "primitives": [
                {
                    "attributes": {
                        "NORMAL": 17,
                        "POSITION": 18,
                        "TEXCOORD_0": 19
                    },
                    "indices": 16,
                    "mode": 4,
                    "material": 4
                }
            ],
            "name": "vanity_xc_handleMesh"
        }
    ],
    "accessors": [
        {
            "bufferView": 0,
            "byteOffset": 0,
            "componentType": 5123,
            "count": 14592,
            "max": [
                3313
            ],
            "min": [
                0
            ],
            "type": "SCALAR"
        },
        {
            "bufferView": 1,
            "byteOffset": 0,
            "componentType": 5126,
            "count": 3314,
            "max": [
                1.0,
                1.0,
                0.9999909996986388
            ],
            "min": [
                -1.0,
                -1.0,
                -0.9999909996986388
            ],
            "type": "VEC3"
        },
        {
            "bufferView": 1,
            "byteOffset": 39768,
            "componentType": 5126,
            "count": 3314,
            "max": [
                59.92804336547852,
                99.52873229980467,
                4.499105930328369
            ],
            "min": [
                -59.71872329711914,
                75.47047424316406,
                -22.05733108520508
            ],
            "type": "VEC3"
        },
        {
            "bufferView": 2,
            "byteOffset": 0,
            "componentType": 5126,
            "count": 3314,
            "max": [
                0.9980080127716064,
                0.9980080127716064
            ],
            "min": [
                0.01437699981033802,
                0.0026559829711914062
            ],
            "type": "VEC2"
        },
        {
            "bufferView": 0,
            "byteOffset": 29184,
            "componentType": 5123,
            "count": 2424,
            "max": [
                571
            ],
            "min": [
                0
            ],
            "type": "SCALAR"
        },
        {
            "bufferView": 1,
            "byteOffset": 79536,
            "componentType": 5126,
            "count": 572,
            "max": [
                0.984749972820282,
                0.999916970729828,
                0.9953879714012146
            ],
            "min": [
                -0.9847490191459656,
                -0.6695460081100464,
                -0.9953879714012146
            ],
            "type": "VEC3"
        },
        {
            "bufferView": 1,
            "byteOffset": 86400,
            "componentType": 5126,
            "count": 572,
            "max": [
                73.28350067138672,
                83.42887878417969,
                16.546266555786133
            ],
            "min": [
                -73.28349304199219,
                75.51412963867188,
                -14.651110649108888
            ],
            "type": "VEC3"
        },
        {
            "bufferView": 2,
            "byteOffset": 26512,
            "componentType": 5126,
            "count": 572,
            "max": [
                0.9980080127716064,
                0.9980559945106506
            ],
            "min": [
                0.001992000034078956,
                0.02625203132629395
            ],
            "type": "VEC2"
        },
        {
            "bufferView": 0,
            "byteOffset": 34032,
            "componentType": 5123,
            "count": 5208,
            "max": [
                1261
            ],
            "min": [
                0
            ],
            "type": "SCALAR"
        },
        {
            "bufferView": 1,
            "byteOffset": 93264,
            "componentType": 5126,
            "count": 1262,
            "max": [
                1.0,
                1.0,
                1.0
            ],
            "min": [
                -1.0,
                -1.0,
                -1.0
            ],
            "type": "VEC3"
        },
        {
            "bufferView": 1,
            "byteOffset": 108408,
            "componentType": 5126,
            "count": 1262,
            "max": [
                92.760009765625,
                95.40237426757812,
                30.987354278564457
            ],
            "min": [
                -92.760009765625,
                81.322998046875,
                -33.19334411621094
            ],
            "type": "VEC3"
        },
        {
            "bufferView": 2,
            "byteOffset": 31088,
            "componentType": 5126,
            "count": 1262,
            "max": [
                2.840440034866333,
                2.832429885864258
            ],
            "min": [
                -1.4792560338974,
                -1.7356090545654297
            ],
            "type": "VEC2"
        },
        {
            "bufferView": 0,
            "byteOffset": 44448,
            "componentType": 5123,
            "count": 46776,
            "max": [
                13324
            ],
            "min": [
                0
            ],
            "type": "SCALAR"
        },
        {
            "bufferView": 1,
            "byteOffset": 123552,
            "componentType": 5126,
            "count": 13325,
            "max": [
                1.0,
                1.0,
                1.0
            ],
            "min": [
                -1.0,
                -1.0,
                -1.0
            ],
            "type": "VEC3"
        },
        {
            "bufferView": 1,
            "byteOffset": 283452,
            "componentType": 5126,
            "count": 13325,
            "max": [
                92.21260833740236,
                81.77922058105469,
                30.142324447631836
            ],
            "min": [
                -92.21260833740236,
                -0.0,
                -31.110475540161136
            ],
            "type": "VEC3"
        },
        {
            "bufferView": 2,
            "byteOffset": 41184,
            "componentType": 5126,
            "count": 13325,
            "max": [
                1.0,
                1.0
            ],
            "min": [
                0.0,
                0.0
            ],
            "type": "VEC2"
        },
        {
            "bufferView": 0,
            "byteOffset": 138000,
            "componentType": 5123,
            "count": 6270,
            "max": [
                1728
            ],
            "min": [
                0
            ],
            "type": "SCALAR"
        },
        {
            "bufferView": 1,
            "byteOffset": 443352,
            "componentType": 5126,
            "count": 1729,
            "max": [
                1.0,
                1.0,
                1.0
            ],
            "min": [
                -1.0,
                -1.0,
                -1.0
            ],
            "type": "VEC3"
        },
        {
            "bufferView": 1,
            "byteOffset": 464100,
            "componentType": 5126,
            "count": 1729,
            "max": [
                56.5294189453125,
                61.0804557800293,
                29.019763946533203
            ],
            "min": [
                -56.5294189453125,
                25.28290557861328,
                25.35247611999512
            ],
            "type": "VEC3"
        },
        {
            "bufferView": 2,
            "byteOffset": 147784,
            "componentType": 5126,
            "count": 1729,
            "max": [
                0.9980080127716064,
                0.9980649948120116
            ],
            "min": [
                0.002733000088483095,
                0.03455299139022827
            ],
            "type": "VEC2"
        }
    ],
    "materials": [
        {
            "pbrMetallicRoughness": {
                "baseColorFactor": [
                    1.0,
                    1.0,
                    1.0,
                    1.0
                ],
                "metallicFactor": 1.0,
                "roughnessFactor": 0.09999999999999998
            },
            "emissiveFactor": [
                0.0,
                0.0,
                0.0
            ],
            "name": "xc_chrome"
        },
        {
            "pbrMetallicRoughness": {
                "baseColorFactor": [
                    0.8578735466735221,
                    0.8578735466735221,
                    0.8578735466735221,
                    1.0
                ],
                "metallicFactor": 0.0,
                "roughnessFactor": 0.4
            },
            "emissiveFactor": [
                0.0,
                0.0,
                0.0
            ],
            "name": "xc_lacq"
        },
        {
            "pbrMetallicRoughness": {
                "baseColorFactor": [
                    1.0,
                    1.0,
                    1.0,
                    1.0
                ],
                "metallicFactor": 0.0,
                "roughnessFactor": 0.5,
                "baseColorTexture": {
                    "index": 0
                }
            },
            "emissiveFactor": [
                0.0,
                0.0,
                0.0
            ],
            "name": "xc_marble"
        },
        {
            "pbrMetallicRoughness": {
                "baseColorFactor": [
                    0.8578735466735221,
                    0.8578735466735221,
                    0.8578735466735221,
                    1.0
                ],
                "metallicFactor": 0.0,
                "roughnessFactor": 0.6
            },
            "emissiveFactor": [
                0.0,
                0.0,
                0.0
            ],
            "name": "xc_wood"
        },
        {
            "pbrMetallicRoughness": {
                "baseColorFactor": [
                    1.0,
                    0.8427152424409695,
                    0.46807846645630763,
                    1.0
                ],
                "metallicFactor": 1.0,
                "roughnessFactor": 0.09999999999999998
            },
            "emissiveFactor": [
                0.0,
                0.0,
                0.0
            ],
            "name": "xc_handle"
        }
    ],
    "bufferViews": [
        {
            "buffer": 0,
            "byteOffset": 646464,
            "byteLength": 150540,
            "target": 34963
        },
        {
            "buffer": 0,
            "byteOffset": 0,
            "byteLength": 484848,
            "byteStride": 12,
            "target": 34962
        },
        {
            "buffer": 0,
            "byteOffset": 484848,
            "byteLength": 161616,
            "byteStride": 8,
            "target": 34962
        }
    ],
    "buffers": [
        {
            "byteLength": 797004,
            "uri": "data:application/octet-stream;base64,"
        }
    ],
    "images": [
        {
            "uri": "data:image/jpeg;base64,"
        }
    ],
    "textures": [
        {
            "sampler": 0,
            "source": 0
        }
    ],
    "samplers": [
        {
            "magFilter": 9729,
            "minFilter": 9987,
            "wrapS": 10497,
            "wrapT": 10497
        }
    ]
}